<svg width="696" height="272" viewBox="0 0 696 272" fill="none" xmlns="http://www.w3.org/2000/svg">
<path d="M75.0372 0.248215C65.181 2.14821 52.5935 7.01695 45.706 11.6482C42.9747 13.4295 40.2435 14.9732 39.6497 14.9732C39.056 14.9732 33.7122 19.6045 28.0122 25.3045C12.8122 40.3857 5.33097 54.042 1.05597 75.1795C-1.08153 85.0357 0.224719 109.498 3.19347 119.473C7.70597 134.198 15.0685 145.836 27.656 158.542C41.5497 172.317 52.7122 178.967 70.881 183.598C93.3247 189.536 122.893 185.142 141.775 173.267C144.268 171.842 146.762 170.536 147.356 170.536C147.831 170.536 159.112 181.104 172.412 193.929C203.525 224.329 206.256 226.229 213.856 222.192C216.943 220.648 218.725 216.729 218.725 211.386C218.725 210.436 206.493 197.492 191.412 182.529C176.331 167.567 164.1 154.623 164.1 153.673C164.1 152.723 166.237 149.636 168.731 146.904C171.343 144.054 175.618 137.761 178.112 132.654C200.793 88.9545 181.912 31.8357 137.618 9.74821C122.418 2.14821 115.531 0.604462 95.2247 0.129456C85.7247 -0.108047 76.6997 0.0107117 75.0372 0.248215ZM105.318 19.9607C118.856 21.8607 133.581 29.5795 144.981 40.8607C160.537 56.2982 166.95 71.9732 166.95 95.1295C166.95 107.123 166.593 109.023 163.15 117.692C153.412 142.036 133.343 158.304 107.575 162.817C94.5122 165.073 89.0497 165.073 77.7685 162.698C51.7622 157.354 30.8622 136.573 23.9747 109.023C19.6997 92.042 21.1247 79.217 29.1997 61.8795C38.8185 41.3357 56.5122 26.492 77.7685 20.9107C87.1497 18.417 92.731 18.1795 105.318 19.9607Z" fill="#084FE3"/>
<path d="M122.537 62.592C118.975 64.7295 113.631 68.0545 110.662 70.192C101.043 76.9607 101.518 76.842 87.981 73.6357C81.2122 72.092 70.5247 69.717 64.3497 68.4107L53.0685 66.0357L51.0497 68.5295C47.3685 72.9232 51.406 77.0795 67.556 85.7482C72.306 88.242 76.4622 91.092 76.8185 91.9232C77.6497 94.0607 70.0497 101.661 67.1997 101.661C65.8935 101.661 61.2622 100.473 56.8685 99.0482C50.8122 97.1482 48.1997 96.792 46.7747 97.6232C44.3997 99.167 43.4497 104.748 45.231 106.886C47.4872 109.498 65.0622 119.473 67.556 119.473C70.406 119.473 82.5185 111.992 112.562 91.567C136.668 75.1795 136.906 75.0607 139.043 71.0232C140.706 67.9357 139.993 65.0857 136.906 61.4045C133.937 57.9607 130.256 58.317 122.537 62.592Z" fill="#084FE3"/>
<path d="M326.549 32.192C322.868 34.2107 320.374 40.6232 321.562 45.1357C323.462 53.092 333.912 55.467 339.968 49.5295C344.718 44.6607 344.718 38.9607 339.731 34.092C335.693 30.0545 331.656 29.4607 326.549 32.192Z" fill="#084FE3"/>
<path d="M585.662 85.0357V139.661H595.756H605.85V85.0357V30.4107H595.756H585.662V85.0357Z" fill="#084FE3"/>
<path d="M399.225 59.9795C392.575 61.4045 385.331 65.6795 381.887 70.192C380.225 72.4482 378.443 74.3482 377.968 74.3482C377.493 74.3482 377.256 71.2607 377.256 67.4607V60.692L367.518 60.3357L357.662 59.9795V99.8795V139.661H367.756H377.85L377.968 115.554C377.968 100.236 378.443 90.0232 379.393 87.4107C381.412 81.7107 387.35 77.9107 394.593 77.9107C402.193 77.9107 403.737 78.6232 406.35 83.967C408.487 88.0045 408.725 91.092 408.725 114.129V139.661H418.7H428.793L429.15 113.179C429.506 89.9045 429.743 86.342 431.762 83.1357C435.681 76.6045 444.825 74.942 451.593 79.4545C457.531 83.3732 458.481 88.5982 458.362 115.911V139.067L468.575 139.423L478.787 139.779V112.467C478.787 97.3857 478.193 82.4232 477.481 79.217C474.75 66.392 467.031 60.3357 453.256 60.217C443.4 60.0982 437.462 62.4732 431.168 68.8857L426.893 73.2795L425.35 69.4795C422.262 62.117 410.031 57.6045 399.225 59.9795Z" fill="#084FE3"/>
<path d="M651.449 60.0982C638.506 61.9982 628.768 69.5982 622.712 82.6607C619.981 88.3607 619.624 90.7357 619.743 101.067C619.743 111.161 620.218 113.892 622.831 119.473C626.393 127.311 632.924 134.079 640.287 137.642C644.681 139.661 647.887 140.136 658.099 140.254C668.787 140.254 671.281 139.898 675.556 137.523C683.037 133.604 688.737 128.142 691.349 122.561L693.487 117.692L683.512 117.336C673.656 116.979 673.299 117.098 670.212 120.423C664.156 126.836 651.093 126.479 644.799 119.829C640.762 115.436 637.199 107.836 638.624 106.411C639.218 105.817 652.162 105.223 667.362 105.104C682.443 105.104 695.149 104.629 695.387 104.154C695.743 103.679 695.506 99.5232 694.793 95.0107C692.774 80.167 684.581 67.817 673.537 62.8295C670.331 61.4045 659.999 58.792 658.456 59.0295C657.981 59.1482 654.774 59.6232 651.449 60.0982ZM667.362 78.5045C671.281 81.7107 675.199 89.192 674.131 90.9732C673.656 91.6857 666.531 92.1607 656.793 92.1607C640.406 92.1607 640.287 92.1607 640.287 89.4295C640.287 85.9857 643.968 80.642 648.124 77.792C653.349 74.3482 662.849 74.7045 667.362 78.5045Z" fill="#084FE3"/>
<path d="M263.256 62.117C253.518 66.1545 250.075 69.1232 247.343 76.0107C244.968 81.7107 244.731 83.2545 245.918 88.5982C247.581 96.317 250.075 100.117 255.537 102.848C260.168 105.223 275.843 108.786 281.662 108.786C286.768 108.786 289.381 110.448 291.043 114.604C292.943 119.117 291.162 122.679 285.818 124.936C277.981 128.142 268.243 126.004 262.9 119.711C260.525 116.979 259.218 116.504 251.975 116.267C247.462 116.148 243.425 116.623 243.068 117.217C241.881 119.117 247.581 129.092 252.212 133.011C258.625 138.592 266.343 140.848 278.1 140.848C301.968 140.848 315.15 128.498 311.231 109.854C308.975 99.5232 299.475 93.3482 282.85 91.567C271.925 90.3795 266.581 88.5982 265.037 85.6295C263.018 81.9482 264.087 79.692 268.837 76.7232C275.487 72.6857 283.8 74.1107 289.262 80.167C291.162 82.1857 292.943 82.6607 299.118 82.6607C308.262 82.6607 309.212 81.3545 305.175 74.1107C302.325 68.8857 295.912 64.017 288.668 61.5232C282.731 59.5045 268.956 59.8607 263.256 62.117Z" fill="#084FE3"/>
<path d="M322.868 60.8107C322.393 61.2857 322.037 79.217 322.037 100.711V139.661H332.131H342.225L341.987 100.117L341.631 60.692L332.725 60.3357C327.737 60.217 323.343 60.3357 322.868 60.8107Z" fill="#084FE3"/>
<path d="M494.225 115.911V171.723H504.318H514.412V149.398V127.192L518.45 131.586C523.675 137.286 528.9 139.779 536.856 140.492C550.275 141.679 561.675 135.386 567.85 123.154C576.518 105.936 574.856 86.1045 563.456 71.2607C559.181 65.5607 547.662 60.0982 540.062 60.0982C531.75 60.0982 522.25 64.6107 519.043 70.192C517.618 72.4482 516.075 74.3482 515.6 74.3482C515.006 74.3482 514.412 71.2607 514.175 67.4607L513.818 60.692L504.081 60.3357L494.225 59.9795V115.911ZM542.912 78.5045C549.562 81.9482 554.787 91.9232 554.787 101.067C554.787 105.223 551.343 113.061 548.137 116.623C543.743 121.373 540.062 123.036 533.887 123.036C529.018 123.036 526.881 122.323 522.843 119.354C515.956 114.486 514.056 109.379 514.65 97.9795C515.125 87.4107 517.025 83.8482 524.625 79.4545C530.087 76.367 537.925 75.892 542.912 78.5045Z" fill="#084FE3"/>
<path d="M620.693 163.648C620.337 164.479 620.218 188.704 620.337 217.442L620.693 269.692L630.431 270.048L640.287 270.404L640.525 217.442C640.762 185.142 640.406 164.004 639.812 163.292C638.031 161.629 621.287 161.867 620.693 163.648Z" fill="#084FE3"/>
<path d="M240.337 172.554L240.693 181.817L250.787 181.936C256.368 182.054 263.137 182.173 265.987 182.292L270.975 182.411V226.348V270.286H282.256H293.537V226.348V182.411H308.975H324.412V172.911V163.411H282.256H239.981L240.337 172.554Z" fill="#084FE3"/>
<path d="M562.268 191.198C545.525 195.354 534.6 210.911 534.6 230.267C534.6 249.267 541.131 261.498 554.787 268.267C559.3 270.523 562.031 270.879 572.6 270.879C586.731 270.761 593.025 268.623 599.437 261.736C603.356 257.579 608.225 249.979 608.225 248.079C608.225 247.486 603.712 246.892 598.131 246.773C588.631 246.654 587.918 246.773 586.018 249.623C581.862 256.036 571.65 257.936 564.643 253.661C560.368 251.167 555.5 244.161 554.312 239.173L553.6 235.848L581.15 235.611C612.856 235.254 609.768 236.679 608.106 222.548C605.85 203.904 593.856 191.911 575.568 190.248C571.412 189.892 565.831 190.248 562.268 191.198ZM581.981 209.129C585.781 212.336 588.75 219.342 587.562 222.311C586.968 223.854 584.356 224.092 571.175 223.736L555.381 223.379L555.618 219.461C556.093 208.536 573.312 201.886 581.981 209.129Z" fill="#084FE3"/>
<path d="M361.224 191.554C356.949 193.217 352.556 197.373 350.893 201.173C348.756 206.398 347.687 205.211 348.043 197.848L348.281 191.792L337.237 192.148C331.181 192.386 326.312 192.861 326.549 193.336C326.668 193.929 326.787 211.386 326.787 232.286V270.286H337.474H348.162V247.248C348.162 226.586 348.399 223.736 350.656 218.748C354.099 210.792 358.731 208.179 367.518 209.011L374.406 209.723L374.049 200.461L373.693 191.317L368.349 191.079C365.381 190.961 362.174 191.198 361.224 191.554Z" fill="#084FE3"/>
<path d="M401.006 193.098C390.793 196.423 382.006 205.092 381.175 212.811C380.818 216.136 380.937 216.254 387.35 216.611C396.375 217.086 401.243 216.017 401.956 213.404C403.5 207.229 416.562 204.736 422.737 209.367C426.062 211.861 428.793 219.817 427.012 221.598C426.418 222.192 419.768 223.261 412.287 223.973C387.112 226.467 376.9 235.492 379.512 252.948C381.293 264.704 390.318 271.473 403.975 271.473C413.118 271.473 419.887 268.742 424.4 263.279C426.181 261.261 427.843 259.598 428.2 259.598C428.556 259.598 428.912 261.973 428.912 264.942V270.286H439.006H449.1V244.398C449.1 209.129 446.843 201.529 434.375 194.761C426.418 190.367 411.337 189.654 401.006 193.098ZM428.912 238.936C428.912 243.092 426.181 247.961 421.312 252.236C413.712 258.886 404.212 258.411 400.056 251.286C398.156 248.079 398.156 247.486 399.818 244.161C400.768 242.261 403.262 239.767 405.281 238.817C408.606 237.036 426.062 234.542 428.081 235.611C428.556 235.848 428.912 237.273 428.912 238.936Z" fill="#084FE3"/>
<path d="M451.475 192.861C451.475 193.454 451.831 194.167 452.187 194.523C452.543 194.998 455.393 202.954 458.6 212.336C461.687 221.598 466.437 234.898 469.05 241.786C471.662 248.673 475.106 257.698 476.65 261.973L479.5 269.692L492.562 270.048L505.743 270.404L508.356 263.517C513.937 249.029 521.537 227.536 526.287 212.692C528.9 204.142 531.631 196.304 532.225 195.236C532.937 194.048 533.412 192.861 533.412 192.504C533.412 192.148 528.187 192.029 521.893 192.148L510.375 192.504L509.306 196.661C508.237 201.292 500.756 225.636 498.262 232.879C497.431 235.492 496.125 239.886 495.412 242.617C494.7 245.467 493.75 247.723 493.275 247.723C492.8 247.723 490.425 241.192 487.812 233.117C485.318 225.161 481.162 212.573 478.55 205.211L473.8 191.911H462.637C456.462 191.911 451.475 192.386 451.475 192.861Z" fill="#084FE3"/>
</svg>
