<svg width="808" height="380" viewBox="0 0 808 380" fill="none" xmlns="http://www.w3.org/2000/svg">
<path d="M119.938 45.8375C110.081 47.7375 97.4939 52.6062 90.6064 57.2375C87.8751 59.0187 85.1439 60.5625 84.5501 60.5625C83.9564 60.5625 78.6126 65.1937 72.9126 70.8937C57.7126 85.975 50.2314 99.6312 45.9564 120.769C43.8189 130.625 45.1251 155.087 48.0939 165.062C52.6064 179.787 59.9689 191.425 72.5564 204.131C86.4501 217.906 97.6126 224.556 115.781 229.187C138.225 235.125 167.794 230.731 186.675 218.856C189.169 217.431 191.663 216.125 192.256 216.125C192.731 216.125 204.013 226.694 217.313 239.519C248.425 269.919 251.156 271.819 258.756 267.781C261.844 266.237 263.625 262.319 263.625 256.975C263.625 256.025 251.394 243.081 236.313 228.119C221.231 213.156 209 200.212 209 199.262C209 198.312 211.138 195.225 213.631 192.494C216.244 189.644 220.519 183.35 223.013 178.244C245.694 134.544 226.813 77.425 182.519 55.3375C167.319 47.7375 160.431 46.1937 140.125 45.7187C130.625 45.4812 121.6 45.6 119.938 45.8375ZM150.219 65.55C163.756 67.45 178.481 75.1687 189.881 86.45C205.438 101.887 211.85 117.562 211.85 140.719C211.85 152.712 211.494 154.612 208.05 163.281C198.313 187.625 178.244 203.894 152.475 208.406C139.413 210.662 133.95 210.662 122.669 208.287C96.6626 202.944 75.7626 182.162 68.8751 154.612C64.6001 137.631 66.0251 124.806 74.1001 107.469C83.7189 86.925 101.413 72.0812 122.669 66.5C132.05 64.0062 137.631 63.7687 150.219 65.55Z" fill="#084FE3"/>
<path d="M167.438 108.181C163.875 110.319 158.531 113.644 155.563 115.781C145.944 122.55 146.419 122.431 132.881 119.225C126.113 117.681 115.425 115.306 109.25 114L97.9689 111.625L95.9501 114.119C92.2689 118.513 96.3064 122.669 112.456 131.338C117.206 133.831 121.363 136.681 121.719 137.513C122.55 139.65 114.95 147.25 112.1 147.25C110.794 147.25 106.163 146.063 101.769 144.638C95.7126 142.738 93.1001 142.381 91.6751 143.213C89.3001 144.756 88.3501 150.338 90.1314 152.475C92.3876 155.088 109.963 165.062 112.456 165.062C115.306 165.062 127.419 157.581 157.463 137.156C181.569 120.769 181.806 120.65 183.944 116.613C185.606 113.525 184.894 110.675 181.806 106.994C178.838 103.55 175.156 103.906 167.438 108.181Z" fill="#084FE3"/>
<path d="M371.45 77.7812C367.769 79.8 365.275 86.2125 366.462 90.725C368.362 98.6812 378.812 101.056 384.869 95.1187C389.619 90.25 389.619 84.55 384.631 79.6812C380.594 75.6437 376.556 75.05 371.45 77.7812Z" fill="#084FE3"/>
<path d="M630.562 130.625V185.25H640.656H650.75V130.625V76H640.656H630.562V130.625Z" fill="#084FE3"/>
<path d="M444.125 105.569C437.475 106.994 430.231 111.269 426.788 115.781C425.125 118.037 423.344 119.937 422.869 119.937C422.394 119.937 422.156 116.85 422.156 113.05V106.281L412.419 105.925L402.562 105.569V145.469V185.25H412.656H422.75L422.869 161.144C422.869 145.825 423.344 135.612 424.294 133C426.312 127.3 432.25 123.5 439.494 123.5C447.094 123.5 448.638 124.212 451.25 129.556C453.388 133.594 453.625 136.681 453.625 159.719V185.25H463.6H473.694L474.05 158.769C474.406 135.494 474.644 131.931 476.662 128.725C480.581 122.194 489.725 120.531 496.494 125.044C502.431 128.962 503.381 134.187 503.262 161.5V184.656L513.475 185.012L523.688 185.369V158.056C523.688 142.975 523.094 128.012 522.381 124.806C519.65 111.981 511.931 105.925 498.156 105.806C488.3 105.687 482.362 108.062 476.069 114.475L471.794 118.869L470.25 115.069C467.162 107.706 454.931 103.194 444.125 105.569Z" fill="#084FE3"/>
<path d="M696.35 105.687C683.406 107.587 673.669 115.188 667.612 128.25C664.881 133.95 664.525 136.325 664.644 146.656C664.644 156.75 665.119 159.481 667.731 165.062C671.294 172.9 677.825 179.669 685.187 183.231C689.581 185.25 692.787 185.725 703 185.844C713.687 185.844 716.181 185.487 720.456 183.112C727.937 179.194 733.637 173.731 736.25 168.15L738.387 163.281L728.412 162.925C718.556 162.569 718.2 162.687 715.112 166.012C709.056 172.425 695.994 172.069 689.7 165.419C685.662 161.025 682.1 153.425 683.525 152C684.119 151.406 697.062 150.812 712.262 150.694C727.344 150.694 740.05 150.219 740.287 149.744C740.644 149.269 740.406 145.112 739.694 140.6C737.675 125.756 729.481 113.406 718.437 108.419C715.231 106.994 704.9 104.381 703.356 104.619C702.881 104.737 699.675 105.212 696.35 105.687ZM712.262 124.094C716.181 127.3 720.1 134.781 719.031 136.562C718.556 137.275 711.431 137.75 701.694 137.75C685.306 137.75 685.187 137.75 685.187 135.019C685.187 131.575 688.869 126.231 693.025 123.381C698.25 119.938 707.75 120.294 712.262 124.094Z" fill="#084FE3"/>
<path d="M308.156 107.706C298.419 111.744 294.975 114.713 292.244 121.6C289.869 127.3 289.631 128.844 290.819 134.188C292.481 141.906 294.975 145.706 300.437 148.438C305.069 150.812 320.744 154.375 326.562 154.375C331.669 154.375 334.281 156.038 335.944 160.194C337.844 164.706 336.062 168.269 330.719 170.525C322.881 173.731 313.144 171.594 307.8 165.3C305.425 162.569 304.119 162.094 296.875 161.856C292.362 161.738 288.325 162.212 287.969 162.806C286.781 164.706 292.481 174.681 297.112 178.6C303.525 184.181 311.244 186.438 323 186.438C346.869 186.438 360.05 174.088 356.131 155.444C353.875 145.112 344.375 138.938 327.75 137.156C316.825 135.969 311.481 134.188 309.937 131.219C307.919 127.538 308.987 125.281 313.737 122.312C320.387 118.275 328.7 119.7 334.162 125.756C336.062 127.775 337.844 128.25 344.019 128.25C353.162 128.25 354.112 126.944 350.075 119.7C347.225 114.475 340.812 109.606 333.569 107.113C327.631 105.094 313.856 105.45 308.156 107.706Z" fill="#084FE3"/>
<path d="M367.769 106.4C367.294 106.875 366.938 124.806 366.938 146.3V185.25H377.031H387.125L386.887 145.706L386.531 106.281L377.625 105.925C372.637 105.806 368.244 105.925 367.769 106.4Z" fill="#084FE3"/>
<path d="M539.125 161.5V217.312H549.219H559.313V194.988V172.781L563.35 177.175C568.575 182.875 573.8 185.369 581.756 186.081C595.175 187.269 606.575 180.975 612.75 168.744C621.419 151.525 619.756 131.694 608.356 116.85C604.081 111.15 592.563 105.688 584.963 105.688C576.65 105.688 567.15 110.2 563.944 115.781C562.519 118.037 560.975 119.938 560.5 119.938C559.906 119.938 559.313 116.85 559.075 113.05L558.719 106.281L548.981 105.925L539.125 105.569V161.5ZM587.813 124.094C594.463 127.537 599.688 137.513 599.688 146.656C599.688 150.812 596.244 158.65 593.038 162.213C588.644 166.963 584.963 168.625 578.788 168.625C573.919 168.625 571.781 167.913 567.744 164.944C560.856 160.075 558.956 154.969 559.55 143.569C560.025 133 561.925 129.438 569.525 125.044C574.988 121.956 582.825 121.481 587.813 124.094Z" fill="#084FE3"/>
<path d="M665.594 209.237C665.237 210.069 665.119 234.294 665.237 263.031L665.594 315.281L675.331 315.637L685.187 315.994L685.425 263.031C685.662 230.731 685.306 209.594 684.712 208.881C682.931 207.219 666.187 207.456 665.594 209.237Z" fill="#084FE3"/>
<path d="M285.238 218.144L285.594 227.406L295.688 227.525C301.269 227.644 308.038 227.763 310.888 227.881L315.875 228V271.938V315.875H327.156H338.438V271.938V228H353.875H369.313V218.5V209H327.156H284.881L285.238 218.144Z" fill="#084FE3"/>
<path d="M607.169 236.787C590.425 240.944 579.5 256.5 579.5 275.856C579.5 294.856 586.031 307.087 599.688 313.856C604.2 316.112 606.931 316.469 617.5 316.469C631.631 316.35 637.925 314.212 644.338 307.325C648.256 303.169 653.125 295.569 653.125 293.669C653.125 293.075 648.612 292.481 643.031 292.362C633.531 292.244 632.819 292.362 630.919 295.212C626.763 301.625 616.55 303.525 609.544 299.25C605.269 296.756 600.4 289.75 599.212 284.762L598.5 281.438L626.05 281.2C657.756 280.844 654.669 282.269 653.006 268.137C650.75 249.494 638.756 237.5 620.469 235.837C616.312 235.481 610.731 235.837 607.169 236.787ZM626.881 254.719C630.681 257.925 633.65 264.931 632.462 267.9C631.869 269.444 629.256 269.681 616.075 269.325L600.281 268.969L600.519 265.05C600.994 254.125 618.212 247.475 626.881 254.719Z" fill="#084FE3"/>
<path d="M406.125 237.144C401.85 238.806 397.456 242.963 395.793 246.763C393.656 251.988 392.587 250.8 392.943 243.438L393.181 237.381L382.137 237.738C376.081 237.975 371.212 238.45 371.45 238.925C371.568 239.519 371.687 256.975 371.687 277.875V315.875H382.375H393.062V292.838C393.062 272.175 393.3 269.325 395.556 264.338C399 256.381 403.631 253.769 412.418 254.6L419.306 255.313L418.95 246.05L418.593 236.906L413.25 236.669C410.281 236.55 407.075 236.788 406.125 237.144Z" fill="#084FE3"/>
<path d="M445.906 238.687C435.694 242.012 426.906 250.681 426.075 258.4C425.719 261.725 425.838 261.844 432.25 262.2C441.275 262.675 446.144 261.606 446.856 258.994C448.4 252.819 461.463 250.325 467.638 254.956C470.963 257.45 473.694 265.406 471.913 267.187C471.319 267.781 464.669 268.85 457.188 269.562C432.013 272.056 421.8 281.081 424.413 298.537C426.194 310.294 435.219 317.062 448.875 317.062C458.019 317.062 464.788 314.331 469.3 308.869C471.081 306.85 472.744 305.187 473.1 305.187C473.456 305.187 473.813 307.562 473.813 310.531V315.875H483.906H494V289.987C494 254.719 491.744 247.119 479.275 240.35C471.319 235.956 456.238 235.244 445.906 238.687ZM473.813 284.525C473.813 288.681 471.081 293.55 466.213 297.825C458.613 304.475 449.113 304 444.956 296.875C443.056 293.669 443.056 293.075 444.719 289.75C445.669 287.85 448.163 285.356 450.181 284.406C453.506 282.625 470.963 280.131 472.981 281.2C473.456 281.438 473.813 282.862 473.813 284.525Z" fill="#084FE3"/>
<path d="M496.375 238.45C496.375 239.044 496.731 239.756 497.087 240.112C497.444 240.587 500.294 248.544 503.5 257.925C506.587 267.187 511.337 280.487 513.95 287.375C516.562 294.262 520.006 303.287 521.55 307.562L524.4 315.281L537.462 315.637L550.644 315.994L553.256 309.106C558.837 294.619 566.438 273.125 571.188 258.281C573.8 249.731 576.531 241.894 577.125 240.825C577.838 239.637 578.312 238.45 578.312 238.094C578.312 237.737 573.088 237.619 566.794 237.737L555.275 238.094L554.206 242.25C553.138 246.881 545.656 271.225 543.162 278.469C542.331 281.081 541.025 285.475 540.312 288.206C539.6 291.056 538.65 293.312 538.175 293.312C537.7 293.312 535.325 286.781 532.712 278.706C530.219 270.75 526.062 258.162 523.45 250.8L518.7 237.5H507.537C501.362 237.5 496.375 237.975 496.375 238.45Z" fill="#084FE3"/>
</svg>
