<svg width="219" height="224" viewBox="0 0 219 224" fill="none" xmlns="http://www.w3.org/2000/svg">
<path d="M75.0372 0.24821C65.181 2.14821 52.5935 7.01696 45.706 11.6482C42.9747 13.4295 40.2435 14.9732 39.6497 14.9732C39.056 14.9732 33.7122 19.6045 28.0122 25.3045C12.8122 40.3857 5.33097 54.042 1.05597 75.1795C-1.08153 85.0357 0.224719 109.498 3.19347 119.473C7.70597 134.198 15.0685 145.836 27.656 158.542C41.5497 172.317 52.7122 178.967 70.881 183.598C93.3247 189.536 122.893 185.142 141.775 173.267C144.268 171.842 146.762 170.536 147.356 170.536C147.831 170.536 159.112 181.104 172.412 193.929C203.525 224.329 206.256 226.229 213.856 222.192C216.943 220.648 218.725 216.729 218.725 211.386C218.725 210.436 206.493 197.492 191.412 182.529C176.331 167.567 164.1 154.623 164.1 153.673C164.1 152.723 166.237 149.636 168.731 146.904C171.343 144.054 175.618 137.761 178.112 132.654C200.793 88.9545 181.912 31.8357 137.618 9.74821C122.418 2.14821 115.531 0.60446 95.2247 0.12946C85.7247 -0.10804 76.6997 0.0107099 75.0372 0.24821ZM105.318 19.9607C118.856 21.8607 133.581 29.5795 144.981 40.8607C160.537 56.2982 166.95 71.9732 166.95 95.1295C166.95 107.123 166.593 109.023 163.15 117.692C153.412 142.036 133.343 158.304 107.575 162.817C94.5122 165.073 89.0497 165.073 77.7685 162.698C51.7622 157.354 30.8622 136.573 23.9747 109.023C19.6997 92.042 21.1247 79.217 29.1997 61.8795C38.8185 41.3357 56.5122 26.492 77.7685 20.9107C87.1497 18.417 92.731 18.1795 105.318 19.9607Z" fill="#084FE3"/>
<path d="M122.537 62.5919C118.975 64.7294 113.631 68.0544 110.662 70.1919C101.043 76.9607 101.518 76.8419 87.981 73.6357C81.2122 72.0919 70.5247 69.7169 64.3497 68.4107L53.0685 66.0357L51.0497 68.5294C47.3685 72.9232 51.406 77.0794 67.556 85.7482C72.306 88.2419 76.4622 91.0919 76.8185 91.9232C77.6497 94.0607 70.0497 101.661 67.1997 101.661C65.8935 101.661 61.2622 100.473 56.8685 99.0482C50.8122 97.1482 48.1997 96.7919 46.7747 97.6232C44.3997 99.1669 43.4497 104.748 45.231 106.886C47.4872 109.498 65.0622 119.473 67.556 119.473C70.406 119.473 82.5185 111.992 112.562 91.5669C136.668 75.1794 136.906 75.0607 139.043 71.0232C140.706 67.9357 139.993 65.0857 136.906 61.4044C133.937 57.9607 130.256 58.3169 122.537 62.5919Z" fill="#084FE3"/>
</svg>
